<?xml version="1.0" encoding="utf-8"?>
<!-- Generator: Adobe Illustrator 16.0.0, SVG Export Plug-In . SVG Version: 6.00 Build 0)  -->
<!DOCTYPE svg PUBLIC "-//W3C//DTD SVG 1.1//EN" "http://www.w3.org/Graphics/SVG/1.1/DTD/svg11.dtd">
<svg version="1.1" id="Layer_1" xmlns="http://www.w3.org/2000/svg" xmlns:xlink="http://www.w3.org/1999/xlink" x="0px" y="0px"
	 width="171.193px" height="107.889px" viewBox="0 0 171.193 107.889" enable-background="new 0 0 171.193 107.889"
	 xml:space="preserve">
<rect x="55.097" y="1.314" fill="none" width="94.476" height="39"/>
<g enable-background="new    ">
	<path d="M73.408,15.3V2.25h3.564c0.684,0,1.311,0.09,1.881,0.27c0.57,0.181,1.062,0.447,1.476,0.802
		c0.414,0.354,0.735,0.785,0.963,1.296c0.228,0.51,0.342,1.095,0.342,1.755c0,0.516-0.078,1.029-0.234,1.539
		c-0.156,0.51-0.408,0.966-0.756,1.367c-0.348,0.402-0.804,0.729-1.368,0.981c-0.564,0.252-1.249,0.378-2.052,0.378h-1.836V15.3
		H73.408z M75.388,8.784h1.782c0.48,0,0.882-0.084,1.206-0.252C78.7,8.364,78.955,8.16,79.141,7.92s0.318-0.498,0.396-0.774
		c0.078-0.275,0.117-0.521,0.117-0.737c0-0.229-0.039-0.478-0.117-0.747c-0.078-0.271-0.213-0.522-0.405-0.756
		c-0.192-0.234-0.447-0.43-0.765-0.586c-0.318-0.155-0.711-0.233-1.179-0.233h-1.8V8.784z"/>
	<path d="M88.618,15.443c-0.695,0-1.344-0.113-1.943-0.342c-0.601-0.228-1.125-0.549-1.575-0.963
		c-0.45-0.414-0.804-0.912-1.062-1.494c-0.258-0.582-0.387-1.232-0.387-1.953V2.25h1.98v8.388c0,0.42,0.075,0.808,0.225,1.161
		c0.15,0.354,0.36,0.666,0.63,0.936c0.27,0.271,0.585,0.48,0.945,0.631c0.359,0.149,0.756,0.225,1.188,0.225
		c0.42,0,0.813-0.075,1.18-0.225c0.365-0.15,0.684-0.36,0.953-0.631c0.271-0.27,0.483-0.581,0.64-0.936
		c0.155-0.354,0.233-0.741,0.233-1.161V2.25h1.98v8.441c0,0.721-0.129,1.371-0.387,1.953c-0.259,0.582-0.612,1.08-1.063,1.494
		c-0.449,0.414-0.979,0.735-1.584,0.963C89.966,15.33,89.313,15.443,88.618,15.443z"/>
	<path d="M96.665,15.3V2.25h3.455c0.637,0,1.213,0.063,1.729,0.188s0.954,0.324,1.314,0.595c0.359,0.27,0.639,0.618,0.836,1.044
		c0.198,0.426,0.297,0.944,0.297,1.557c0,0.336-0.033,0.666-0.099,0.99s-0.174,0.621-0.323,0.891
		c-0.15,0.271-0.349,0.507-0.595,0.711s-0.549,0.36-0.909,0.468c0.313,0.061,0.621,0.162,0.928,0.307
		c0.306,0.144,0.578,0.339,0.818,0.585s0.436,0.549,0.586,0.909c0.149,0.359,0.225,0.786,0.225,1.277c0,0.624-0.12,1.158-0.36,1.603
		s-0.558,0.81-0.954,1.098s-0.852,0.498-1.367,0.63c-0.517,0.133-1.051,0.198-1.603,0.198H96.665z M98.644,4.032v3.852h1.765
		c0.647,0,1.133-0.191,1.457-0.576c0.324-0.384,0.486-0.852,0.486-1.404c0-0.647-0.195-1.121-0.585-1.422
		c-0.39-0.3-0.909-0.449-1.558-0.449H98.644z M98.644,9.557v3.96h1.836c0.349,0,0.675-0.042,0.981-0.126
		c0.306-0.084,0.572-0.207,0.801-0.369c0.228-0.162,0.408-0.369,0.54-0.621s0.198-0.546,0.198-0.882
		c0-0.371-0.078-0.681-0.234-0.927s-0.363-0.447-0.621-0.603c-0.258-0.156-0.553-0.268-0.882-0.333
		c-0.331-0.066-0.669-0.1-1.017-0.1H98.644z"/>
	<path d="M107.356,15.3V2.25h1.98v11.178h6.479V15.3H107.356z"/>
	<path d="M117.634,2.25h1.963V15.3h-1.963V2.25z"/>
	<path d="M132.484,14.364c-0.144,0.107-0.345,0.225-0.603,0.351c-0.259,0.126-0.562,0.243-0.91,0.351
		c-0.348,0.108-0.734,0.198-1.16,0.271s-0.879,0.107-1.359,0.107c-1.02,0-1.936-0.177-2.745-0.53
		c-0.81-0.354-1.497-0.831-2.061-1.432c-0.564-0.6-0.997-1.296-1.296-2.088c-0.301-0.792-0.45-1.632-0.45-2.52
		c0-0.984,0.177-1.891,0.53-2.718c0.354-0.828,0.838-1.542,1.449-2.143c0.612-0.6,1.329-1.067,2.151-1.404
		c0.821-0.335,1.694-0.504,2.619-0.504c0.348,0,0.702,0.024,1.062,0.072c0.36,0.048,0.699,0.114,1.018,0.198
		c0.317,0.084,0.6,0.183,0.846,0.297s0.436,0.231,0.566,0.351c-0.096,0.145-0.17,0.265-0.225,0.36
		c-0.054,0.097-0.111,0.195-0.171,0.297c-0.06,0.103-0.126,0.219-0.198,0.352c-0.072,0.132-0.168,0.306-0.287,0.521
		c-0.156-0.107-0.34-0.198-0.549-0.27c-0.211-0.072-0.43-0.132-0.658-0.181c-0.228-0.048-0.459-0.084-0.692-0.107
		c-0.233-0.024-0.447-0.036-0.64-0.036c-0.695,0-1.34,0.129-1.935,0.387c-0.594,0.259-1.106,0.606-1.539,1.044
		c-0.432,0.438-0.771,0.945-1.017,1.521s-0.369,1.176-0.369,1.8c0,0.612,0.117,1.2,0.352,1.764c0.233,0.564,0.558,1.068,0.971,1.513
		c0.414,0.443,0.912,0.798,1.494,1.062s1.222,0.396,1.918,0.396c0.371,0,0.731-0.036,1.08-0.108
		c0.348-0.072,0.662-0.156,0.944-0.252s0.517-0.192,0.702-0.288s0.297-0.168,0.333-0.216L132.484,14.364z"/>
</g>
<rect x="0" y="76.082" fill="none" width="142.299" height="31.732"/>
<g enable-background="new    ">
	<path d="M1.169,88.846c0-1.538,0.297-2.999,0.892-4.384c0.595-1.384,1.41-2.599,2.445-3.645s2.241-1.872,3.615-2.477
		c1.374-0.604,2.85-0.907,4.43-0.907c1.558,0,3.03,0.303,4.414,0.907s2.594,1.431,3.63,2.477s1.856,2.261,2.461,3.645
		c0.605,1.385,0.908,2.846,0.908,4.384c0,1.579-0.303,3.056-0.908,4.43s-1.425,2.579-2.461,3.614
		c-1.036,1.036-2.246,1.852-3.63,2.446s-2.856,0.892-4.414,0.892c-1.58,0-3.056-0.297-4.43-0.892
		c-1.374-0.595-2.579-1.41-3.615-2.446c-1.036-1.035-1.851-2.24-2.445-3.614C1.466,91.902,1.169,90.426,1.169,88.846z M4.522,88.878
		c0,1.128,0.21,2.188,0.63,3.184s1,1.861,1.738,2.6s1.6,1.322,2.584,1.753s2.03,0.646,3.138,0.646s2.148-0.216,3.122-0.646
		s1.825-1.015,2.553-1.753s1.302-1.604,1.723-2.6s0.631-2.066,0.631-3.215c0-1.128-0.21-2.188-0.631-3.184s-1-1.861-1.738-2.6
		s-1.595-1.322-2.569-1.753s-2.015-0.646-3.122-0.646s-2.153,0.216-3.138,0.646s-1.841,1.015-2.569,1.753s-1.302,1.61-1.723,2.615
		S4.522,87.75,4.522,88.878z"/>
	<path d="M29.869,77.68h5.599c2.256,0,4.163,0.338,5.722,1.015c1.558,0.677,2.825,1.564,3.799,2.661s1.682,2.327,2.123,3.691
		s0.662,2.723,0.662,4.076c0,1.661-0.297,3.163-0.892,4.506c-0.595,1.344-1.405,2.487-2.43,3.431
		c-1.026,0.943-2.215,1.666-3.568,2.168c-1.354,0.503-2.789,0.754-4.307,0.754h-6.706V77.68z M36.083,96.783
		c1.189,0,2.292-0.174,3.307-0.522s1.897-0.856,2.646-1.523c0.749-0.666,1.333-1.486,1.753-2.461
		c0.42-0.974,0.631-2.097,0.631-3.368c0-1.354-0.236-2.532-0.708-3.537c-0.472-1.005-1.087-1.841-1.846-2.508
		c-0.759-0.666-1.615-1.158-2.569-1.477c-0.954-0.317-1.922-0.477-2.907-0.477h-3.168v15.873H36.083z"/>
	<path d="M53.74,99.982V77.68h14.643v3.045H57.124v6.521h10.028v3.107H57.124v6.521h11.689v3.106H53.74z"/>
	<path d="M94.284,77.68v23.316c-0.288-0.369-0.842-0.964-1.662-1.783c-0.82-0.82-1.764-1.764-2.83-2.83s-2.199-2.185-3.398-3.354
		c-1.2-1.169-2.333-2.281-3.399-3.338c-1.066-1.056-2-1.999-2.799-2.83c-0.8-0.83-1.333-1.42-1.6-1.769l-0.584-0.8l0.092,0.984
		v14.704h-3.384V76.635c0.226,0.287,0.6,0.697,1.123,1.23s1.138,1.153,1.846,1.86c0.708,0.708,1.487,1.472,2.338,2.292
		s1.712,1.651,2.584,2.492s1.733,1.666,2.584,2.476c0.851,0.811,1.63,1.564,2.338,2.262s1.317,1.313,1.831,1.846
		c0.512,0.533,0.871,0.933,1.076,1.199l0.584,0.861l-0.092-1.046V77.68H94.284z"/>
	<path d="M114.524,78.911l-1.199,2.737c-0.842-0.308-1.678-0.554-2.508-0.738s-1.625-0.276-2.384-0.276
		c-1.292,0-2.323,0.267-3.092,0.8s-1.153,1.21-1.153,2.03c0,0.697,0.277,1.256,0.83,1.676c0.555,0.421,1.241,0.8,2.062,1.139
		c0.819,0.338,1.712,0.677,2.677,1.015c0.963,0.339,1.855,0.774,2.676,1.308s1.508,1.205,2.061,2.015
		c0.555,0.811,0.831,1.852,0.831,3.123c0,0.984-0.18,1.871-0.538,2.66c-0.359,0.79-0.893,1.472-1.6,2.046
		c-0.708,0.574-1.59,1.016-2.646,1.323c-1.056,0.307-2.291,0.461-3.706,0.461c-0.903,0-1.718-0.062-2.446-0.185
		c-0.728-0.123-1.384-0.281-1.969-0.477c-0.584-0.195-1.097-0.405-1.537-0.631c-0.441-0.226-0.815-0.431-1.123-0.615l1.477-2.922
		c0.82,0.472,1.732,0.851,2.738,1.138c1.004,0.287,1.917,0.431,2.737,0.431c0.41,0,0.917-0.051,1.522-0.153s1.185-0.282,1.738-0.539
		c0.554-0.256,1.03-0.6,1.43-1.03c0.4-0.431,0.601-0.974,0.601-1.63c0-0.595-0.159-1.103-0.478-1.523
		c-0.317-0.42-0.738-0.789-1.261-1.107c-0.522-0.317-1.118-0.604-1.784-0.861c-0.666-0.256-1.349-0.522-2.045-0.8
		c-0.697-0.276-1.38-0.568-2.047-0.876c-0.666-0.308-1.261-0.682-1.783-1.123c-0.523-0.441-0.943-0.954-1.262-1.538
		c-0.318-0.585-0.477-1.287-0.477-2.107c0-0.759,0.154-1.507,0.461-2.245c0.309-0.738,0.77-1.395,1.385-1.969
		s1.379-1.036,2.291-1.385c0.913-0.349,1.975-0.522,3.185-0.522c0.738,0,1.461,0.062,2.169,0.185
		c0.707,0.123,1.348,0.261,1.922,0.415c0.574,0.153,1.062,0.303,1.461,0.446C114.139,78.747,114.401,78.849,114.524,78.911z"/>
	<path d="M121.137,99.982V77.68h14.643v3.045h-11.259v6.521h10.028v3.107h-10.028v6.521h11.689v3.106H121.137z"/>
</g>
<polyline fill="none" stroke="#000000" stroke-width="3.0643" stroke-miterlimit="10" points="5.124,67.558 24.229,23.635 
	43.335,67.558 "/>
<ellipse fill="none" stroke="#000000" stroke-width="3.0643" stroke-miterlimit="10" cx="54.228" cy="9.337" rx="6.968" ry="7.149"/>
<ellipse fill="#FFFFFF" stroke="#000000" stroke-width="3.0643" stroke-miterlimit="10" cx="23.454" cy="9.847" rx="6.968" ry="7.15"/>
<g>
	<path stroke="#000000" stroke-width="1.0214" stroke-miterlimit="10" d="M94.483,22.307L76.955,63.31l-9.806-22.68l7.722-17.957
		h-2.143l-6.867,16.06l-0.145-0.345c-0.229,0.766-0.583,1.488-1.078,2.106l0.058,0.135L54.951,63.31L37.362,22.307h-2.269
		l18.755,43.514h2.085l9.986-23.164l9.991,23.164h2.083L96.81,22.307H94.483z"/>
	<path stroke="#000000" stroke-width="1.0214" stroke-miterlimit="10" d="M99.017,43.758c0-2.613,0.46-5.207,1.379-7.782
		c0.919-2.573,2.258-4.893,4.014-6.957c1.757-2.063,3.912-3.737,6.467-5.024c2.553-1.29,5.465-1.93,8.732-1.93
		c3.883,0,7.18,0.889,9.897,2.666c2.717,1.774,4.729,4.056,6.035,6.834l-1.84,0.855c-0.815-1.552-1.765-2.858-2.847-3.923
		c-1.084-1.062-2.258-1.92-3.524-2.573s-2.573-1.122-3.923-1.409c-1.347-0.285-2.696-0.432-4.046-0.432
		c-2.899,0-5.485,0.583-7.751,1.75c-2.269,1.164-4.179,2.685-5.731,4.563c-1.552,1.88-2.728,4.005-3.522,6.376
		c-0.799,2.368-1.194,4.759-1.194,7.169c0,2.656,0.469,5.209,1.41,7.661c0.938,2.45,2.234,4.607,3.89,6.466
		c1.655,1.859,3.606,3.342,5.854,4.44c2.245,1.104,4.656,1.657,7.23,1.657c1.388,0,2.8-0.175,4.229-0.521
		c1.43-0.349,2.818-0.879,4.168-1.597c1.35-0.715,2.594-1.624,3.737-2.726c1.145-1.106,2.126-2.431,2.94-3.985l1.9,0.736
		c-0.736,1.635-1.737,3.087-3.002,4.351c-1.27,1.268-2.679,2.331-4.229,3.188c-1.555,0.859-3.198,1.502-4.935,1.931
		c-1.739,0.432-3.425,0.646-5.058,0.646c-2.982,0-5.711-0.653-8.182-1.963c-2.472-1.308-4.607-3.012-6.406-5.117
		c-1.796-2.105-3.196-4.494-4.194-7.169C99.518,49.263,99.017,46.537,99.017,43.758z"/>
</g>
<path fill="#FFFFFF" stroke="#000000" stroke-width="3.1454" stroke-miterlimit="10" d="M154.496,35.387
	c2.719-0.5,5.317,1.241,5.803,3.891c0.486,2.647-1.318,5.199-4.04,5.7c-2.716,0.5-5.313-1.242-5.801-3.894
	C149.97,38.438,151.777,35.885,154.496,35.387z"/>
<path fill="none" stroke="#000000" stroke-width="3.1454" stroke-miterlimit="10" d="M151.094,27.909
	c7.988-4.073,16.998,2.691,18.328,9.926c1.331,7.234-4.15,16.379-13.083,15.691l-0.686-0.093l-31.528-7.332l26.118-17.662
	L151.094,27.909z"/>
</svg>
